<?xml version="1.0" standalone="no"?>
<!DOCTYPE svg PUBLIC "-//W3C//DTD SVG 20010904//EN"
 "http://www.w3.org/TR/2001/REC-SVG-20010904/DTD/svg10.dtd">
<svg version="1.0" xmlns="http://www.w3.org/2000/svg"
 width="1288.000000pt" height="1288.000000pt" viewBox="0 0 1288.000000 1288.000000"
 preserveAspectRatio="xMidYMid meet">
<metadata>
Created by potrace 1.11, written by Peter Selinger 2001-2013
</metadata>
<g transform="translate(0.000000,1288.000000) scale(0.100000,-0.100000)"
fill="#000000" stroke="none">
<path d="M7543 11570 c-10 -3 -27 -5 -38 -5 -11 0 -23 -4 -27 -10 -5 -7 -8 -6
-8 1 0 8 -11 9 -35 4 -24 -5 -33 -5 -28 3 4 7 0 8 -13 3 -10 -5 -71 -12 -134
-17 -109 -9 -169 -15 -180 -19 -3 -2 -9 -2 -14 -1 -4 1 -14 -4 -22 -10 -11 -9
-14 -9 -14 0 0 7 -5 9 -12 5 -6 -4 -21 -9 -32 -10 -12 -2 -39 -6 -61 -10 -22
-3 -43 -11 -47 -18 -5 -7 -8 -6 -8 4 0 9 -3 11 -8 5 -4 -5 -16 -11 -27 -11
-34 -2 -60 -9 -66 -17 -3 -4 -22 -8 -42 -9 -20 -1 -37 -5 -37 -9 0 -4 -9 -6
-20 -4 -11 2 -20 0 -20 -5 0 -5 -7 -7 -15 -4 -8 4 -15 1 -15 -4 0 -6 -9 -9
-20 -7 -11 2 -20 -1 -20 -7 0 -6 -3 -9 -6 -6 -10 10 -287 -89 -435 -155 -135
-61 -288 -142 -347 -183 -200 -143 -446 -371 -594 -550 -184 -223 -353 -500
-408 -669 -23 -70 -71 -168 -112 -230 -116 -172 -378 -429 -723 -709 -66 -53
-128 -103 -137 -111 -108 -88 -138 -112 -398 -311 -113 -86 -217 -166 -231
-178 -14 -12 -41 -32 -59 -46 -18 -14 -63 -48 -99 -75 -36 -28 -203 -156 -371
-284 -286 -219 -427 -332 -510 -408 -19 -17 -47 -42 -62 -55 -193 -167 -257
-228 -331 -313 -183 -210 -272 -388 -261 -517 2 -24 5 -50 5 -58 3 -32 49
-117 80 -148 84 -86 238 -140 469 -168 131 -15 436 -4 556 20 409 84 649 147
959 252 424 144 471 154 770 155 286 2 464 -24 1135 -164 222 -47 453 -81 750
-112 195 -20 361 -13 509 21 79 18 84 13 77 -71 -15 -162 -17 -198 -20 -301
-3 -114 -9 -140 -29 -127 -16 11 -59 11 -78 2 -9 -5 -19 -5 -23 -2 -10 11 -46
11 -46 0 0 -6 -5 -6 -12 1 -7 5 -22 6 -33 2 -11 -4 -29 -5 -40 -1 -27 8 -57 7
-73 -2 -7 -5 -12 -3 -12 3 0 7 -6 8 -18 1 -10 -5 -24 -6 -32 -1 -7 4 -24 4
-37 -1 -15 -5 -23 -5 -23 2 0 6 -6 7 -12 3 -18 -12 -100 -12 -122 -1 -11 5
-16 5 -13 0 3 -5 -26 -9 -66 -10 -120 0 -421 -12 -444 -17 -14 -3 -23 0 -23 7
0 8 -3 8 -8 2 -4 -5 -38 -11 -77 -12 -38 -1 -103 -3 -143 -4 -40 -1 -75 -6
-78 -10 -2 -4 -18 -3 -36 1 -17 5 -35 7 -41 3 -6 -3 -42 -7 -81 -9 -72 -3
-143 -7 -336 -20 -58 -3 -122 -7 -142 -7 -21 -1 -38 -5 -38 -9 0 -5 -9 -4 -20
2 -11 6 -20 7 -20 3 0 -7 -67 -12 -232 -16 -32 -1 -58 -4 -58 -7 0 -3 -33 -5
-73 -4 -39 0 -75 -2 -80 -4 -4 -2 -51 -6 -105 -8 -132 -7 -227 -13 -227 -15 0
-1 -20 -3 -45 -4 -38 -2 -134 -11 -217 -19 -12 -1 -25 -5 -29 -9 -4 -3 -15 -2
-26 4 -10 5 -24 6 -31 2 -6 -4 -25 -8 -42 -9 -16 -1 -59 -5 -95 -9 -36 -4 -79
-9 -96 -10 -17 -1 -36 -5 -42 -9 -7 -4 -12 -2 -12 6 0 9 -3 10 -8 2 -4 -6 -15
-10 -24 -8 -10 1 -20 -2 -24 -7 -3 -5 -14 -4 -26 2 -11 6 -18 7 -15 2 4 -6 -8
-10 -26 -11 -18 -1 -48 -4 -67 -8 -19 -3 -48 -7 -65 -9 -16 -2 -46 -6 -65 -10
-19 -4 -51 -9 -70 -10 -19 -2 -35 -4 -35 -5 0 -1 -11 -4 -25 -5 -45 -6 -94
-15 -160 -30 -36 -8 -81 -17 -100 -20 -19 -3 -37 -9 -40 -13 -3 -4 -14 -7 -25
-8 -19 -1 -48 -5 -125 -19 -19 -4 -41 -12 -47 -17 -9 -7 -13 -7 -13 0 0 12
-160 -43 -170 -59 -4 -6 -13 -8 -19 -5 -6 4 -11 2 -11 -5 0 -7 -3 -9 -7 -6 -3
4 -17 -5 -30 -19 -12 -14 -23 -22 -23 -17 0 4 -13 -7 -29 -24 -16 -18 -31 -30
-34 -27 -3 3 -8 -4 -12 -15 -3 -12 -10 -21 -15 -21 -5 0 -17 -16 -26 -35 -9
-19 -20 -35 -25 -35 -5 0 -6 -7 -3 -15 4 -8 2 -15 -3 -15 -5 0 -9 -10 -10 -22
-1 -13 -4 -36 -8 -53 -3 -16 -8 -160 -11 -320 -2 -159 -5 -324 -7 -365 -2 -41
1 -83 5 -92 5 -11 5 -18 -1 -18 -5 0 -3 -19 4 -44 8 -24 11 -47 8 -50 -4 -3
-1 -6 6 -6 7 0 10 -4 6 -9 -3 -5 -1 -12 5 -16 5 -3 10 -15 10 -26 0 -11 7 -22
15 -25 8 -4 15 -12 15 -19 0 -8 12 -23 26 -34 15 -12 23 -21 18 -22 -5 0 1 -4
14 -9 29 -12 28 -33 -3 -50 -14 -7 -23 -15 -21 -17 2 -3 -10 -18 -27 -34 -17
-17 -32 -37 -33 -46 -2 -9 -8 -19 -14 -23 -7 -4 -12 -11 -12 -16 0 -5 -5 -20
-10 -34 -5 -14 -12 -45 -14 -69 -3 -25 -9 -50 -14 -56 -5 -7 -7 -15 -3 -19 4
-4 8 -50 9 -104 3 -137 3 -134 16 -126 7 5 8 3 3 -6 -12 -20 -13 -120 -1 -120
7 0 8 -3 1 -8 -15 -11 -17 -32 -3 -32 9 0 9 -3 0 -12 -7 -7 -8 -17 -1 -30 5
-10 6 -18 1 -18 -9 0 -7 -96 3 -145 4 -16 8 -37 9 -45 1 -8 7 -25 14 -36 6
-12 8 -24 5 -28 -3 -3 -1 -6 5 -6 7 0 12 -7 12 -15 0 -8 5 -15 10 -15 6 0 10
-6 10 -14 0 -7 12 -25 26 -40 15 -14 24 -26 20 -26 -4 0 7 -12 26 -28 18 -15
34 -30 36 -34 2 -5 10 -8 18 -8 8 0 14 -5 14 -11 0 -5 5 -7 10 -4 6 3 10 2 10
-4 0 -10 38 -27 53 -23 4 1 7 -2 7 -6 0 -4 10 -9 23 -10 12 -1 45 -3 73 -5 28
-2 55 -6 61 -10 6 -4 13 -3 17 0 10 11 56 11 56 1 0 -5 6 -6 13 -1 17 11 77
11 77 1 0 -5 6 -6 12 -2 18 11 48 12 48 2 0 -5 6 -6 12 -2 19 12 48 12 48 1 0
-5 5 -5 13 1 8 7 18 7 27 2 8 -5 19 -6 24 -2 17 10 46 9 46 -2 0 -6 4 -6 11 1
7 7 21 8 40 3 16 -5 29 -5 29 -1 0 3 9 7 20 7 11 0 20 -4 20 -9 0 -5 6 -5 13
1 8 7 18 7 27 2 8 -5 21 -5 29 -1 19 8 69 7 77 -2 4 -4 15 -2 25 3 12 7 20 7
24 0 5 -7 11 -8 19 -1 7 6 17 6 26 1 8 -5 21 -5 32 1 13 7 18 6 18 -2 0 -8 4
-8 13 -1 8 7 18 7 27 2 8 -5 21 -5 32 1 10 5 18 6 18 2 0 -10 47 -10 57 0 3 4
12 2 19 -4 8 -7 14 -7 19 1 5 8 10 8 20 0 9 -8 15 -8 20 0 4 7 12 7 26 0 10
-6 19 -7 19 -2 0 10 30 9 48 -2 7 -4 12 -2 12 5 0 9 3 9 14 0 10 -9 16 -9 21
-1 5 8 11 8 19 1 9 -7 16 -7 24 1 7 7 12 8 12 2 0 -5 11 -9 25 -9 14 0 25 4
25 8 0 4 9 3 20 -3 15 -8 20 -8 20 1 0 8 4 8 13 1 8 -7 18 -7 27 -2 8 5 18 6
23 3 15 -9 67 -9 67 0 0 5 6 4 14 -2 10 -9 16 -9 21 -1 5 8 11 8 19 1 9 -7 16
-7 24 1 9 9 12 9 12 0 0 -9 6 -10 18 -5 21 10 43 10 59 0 6 -4 14 -3 18 3 4 6
12 7 18 3 17 -10 47 -11 53 -1 3 4 11 5 17 1 19 -12 37 -12 37 -1 0 6 7 4 17
-3 9 -8 19 -14 22 -14 2 0 6 -129 7 -287 1 -157 5 -291 8 -296 4 -6 2 -13 -4
-17 -6 -4 -8 -10 -5 -15 3 -5 -3 -13 -12 -19 -10 -6 -15 -11 -11 -11 4 0 -1
-15 -11 -34 -25 -43 -21 -100 10 -153 28 -49 64 -64 154 -65 40 -1 65 -5 65
-12 0 -8 3 -8 8 0 6 8 254 12 272 4 3 -1 10 -1 15 0 33 8 75 6 75 -4 0 -7 3
-7 8 -1 10 14 32 17 32 4 0 -8 5 -8 15 1 11 9 15 9 15 1 0 -8 6 -9 18 -3 21
10 94 8 112 -3 7 -5 11 -4 7 1 -3 5 17 9 44 9 27 0 49 -4 49 -8 0 -4 9 -3 19
3 14 7 22 7 27 -1 4 -8 9 -7 15 2 5 8 9 10 9 4 0 -11 61 -12 78 -1 6 3 13 3
16 -2 5 -9 53 -9 62 1 4 3 15 2 25 -3 12 -7 20 -7 24 0 4 6 11 8 16 4 15 -9
140 -11 146 -2 2 5 10 5 16 0 7 -4 45 -8 85 -7 39 0 72 -1 72 -3 0 -5 -56
-105 -90 -160 -16 -26 -41 -67 -56 -92 -33 -54 -171 -267 -259 -400 -35 -52
-96 -135 -135 -184 -39 -48 -69 -90 -67 -92 6 -6 129 35 232 76 154 61 463
213 481 236 6 7 14 10 18 6 4 -4 13 0 19 8 7 9 27 22 45 29 17 7 32 17 32 22
0 5 3 8 8 7 12 -3 82 35 82 44 0 5 4 7 9 4 5 -3 21 4 37 16 15 12 33 23 38 24
11 2 116 64 126 74 3 3 26 17 53 30 26 14 47 28 47 32 0 5 5 8 11 8 15 0 314
199 412 274 38 29 87 43 87 24 0 -7 4 -7 13 -1 13 11 98 10 116 -1 6 -4 11 -3
11 1 0 10 70 11 86 1 5 -4 15 -4 21 0 6 4 46 5 88 2 42 -3 79 -1 82 3 3 4 11
3 19 -4 11 -9 14 -8 14 2 0 9 3 10 8 4 4 -5 21 -10 37 -10 17 0 33 5 37 10 5
7 8 7 8 0 0 -6 59 -10 159 -9 l159 0 -16 -25 c-9 -14 -19 -28 -22 -31 -3 -3
-21 -25 -40 -50 -75 -100 -146 -186 -162 -198 -29 -21 -21 -34 15 -27 127 26
446 199 559 304 11 11 25 18 29 15 4 -2 10 -1 12 3 3 5 64 6 136 3 83 -3 133
-1 135 5 3 7 5 7 5 0 1 -6 48 -10 124 -9 80 1 125 -3 129 -10 6 -8 8 -8 8 0 0
13 128 13 149 0 9 -6 12 -5 8 1 -8 12 51 11 70 0 7 -4 14 -3 17 1 6 10 46 10
63 -1 6 -4 14 -3 17 1 3 5 25 7 48 5 58 -5 58 -5 98 3 19 3 43 6 52 6 10 -1
20 3 23 7 2 5 16 7 30 6 14 -2 25 1 25 6 0 6 4 8 9 4 5 -3 16 1 24 9 8 8 17
13 20 10 2 -3 14 6 25 20 11 15 25 26 31 26 6 0 10 3 9 8 -1 4 5 23 14 42 32
74 40 127 24 149 -8 11 -8 13 1 7 9 -5 12 1 9 23 -2 17 1 31 7 31 6 0 5 5 -2
13 -8 10 -7 17 1 25 7 7 8 12 3 12 -6 0 -9 69 -8 173 0 94 2 217 2 271 1 55 4
96 8 93 3 -4 12 -2 20 4 7 6 13 8 13 3 0 -11 1800 -12 1818 -1 7 5 12 3 12 -5
0 -10 3 -9 10 2 5 8 12 11 16 7 4 -4 13 -2 21 4 10 9 13 8 13 0 0 -7 5 -9 13
-4 6 4 21 9 32 11 37 7 40 8 53 15 6 5 12 5 12 1 0 -3 11 1 25 10 14 9 25 14
25 11 0 -3 24 10 54 29 54 34 123 96 109 96 -4 0 0 5 10 11 9 5 17 16 17 24 0
7 4 15 8 17 10 4 51 91 56 121 3 12 5 23 6 25 7 8 4 92 -3 92 -4 0 -3 9 3 20
6 11 7 20 2 20 -5 0 -7 26 -5 58 5 68 5 68 0 109 -2 19 1 33 7 33 6 0 4 5 -4
10 -13 9 -13 10 0 10 9 0 11 3 5 8 -5 4 -9 32 -8 62 4 83 4 82 0 123 -2 20 0
37 5 37 5 0 4 8 -1 18 -7 13 -6 23 1 30 8 8 8 12 1 12 -12 0 -12 49 0 68 5 6
4 12 0 12 -13 0 -11 74 1 82 7 5 6 8 -3 8 -11 0 -11 3 -1 15 7 8 8 15 3 15 -8
0 -11 87 -3 115 1 6 1 12 0 15 -1 3 -4 75 -6 160 -2 85 -5 166 -7 180 -7 51
-20 90 -29 90 -5 0 -6 5 -3 10 3 6 1 10 -6 10 -7 0 -10 3 -6 6 6 6 -1 17 -35
55 -10 10 -18 22 -18 25 0 9 -30 36 -30 27 0 -4 -4 -1 -10 7 -10 16 6 43 21
34 5 -3 9 0 9 5 0 6 6 11 13 11 17 0 78 56 70 64 -3 3 -1 6 5 6 11 0 43 52 41
67 0 5 -5 13 -10 20 -6 7 -6 13 -1 17 10 6 8 97 -2 114 -3 6 -2 13 3 17 11 6
8 136 -3 154 -4 6 -3 11 3 11 5 0 3 13 -5 30 -9 16 -13 34 -9 40 3 5 1 10 -5
10 -6 0 -9 4 -6 9 3 5 0 14 -8 20 -7 6 -21 29 -31 51 -10 22 -25 40 -33 40 -9
0 -13 3 -9 6 8 8 -18 34 -33 34 -6 0 -8 5 -5 10 3 6 -1 10 -10 10 -9 0 -25 9
-37 20 -12 11 -30 20 -39 20 -10 0 -21 4 -24 10 -3 6 -19 10 -35 10 -16 0 -31
4 -34 9 -4 5 -14 8 -24 6 -9 -1 -24 1 -32 5 -8 5 -31 11 -50 14 -50 9 -70 13
-115 21 -22 5 -49 9 -60 11 -11 1 -20 3 -20 4 0 3 -40 10 -70 12 -16 1 -34 4
-40 7 -5 3 -20 6 -33 7 -12 0 -24 3 -27 6 -3 2 2 52 11 109 8 57 16 128 17
156 1 29 4 53 7 53 3 0 7 26 9 58 6 90 8 117 10 117 2 0 3 37 4 83 1 45 4 82
7 82 7 0 4 605 -3 685 -3 33 -9 107 -13 165 -3 58 -8 107 -9 110 -2 3 -6 35
-10 70 -6 69 -48 334 -65 410 -82 382 -126 546 -226 827 -73 207 -134 345
-266 608 -58 115 -70 147 -60 157 8 8 52 12 145 12 113 0 148 -4 242 -29 176
-45 345 -120 493 -218 45 -30 82 -51 82 -46 0 35 -139 325 -173 361 -7 7 -18
25 -26 40 -49 95 -250 328 -394 457 -51 46 -50 63 2 55 80 -13 189 -37 241
-53 33 -11 60 -18 60 -16 0 14 -51 112 -83 160 -49 72 -54 79 -89 116 -16 15
-28 31 -28 34 0 25 -249 252 -403 365 -48 35 -87 68 -87 72 0 30 238 -40 383
-113 43 -21 80 -39 83 -39 12 0 -63 96 -139 176 -76 81 -101 106 -190 186 -38
34 -260 184 -332 223 -410 227 -706 326 -1240 414 -99 16 -211 32 -250 36 -38
3 -79 8 -90 10 -92 18 -520 36 -651 26 -49 -3 -108 -4 -131 0 -22 3 -49 3 -60
-1z"/>
</g>
</svg>
